<svg xmlns="http://www.w3.org/2000/svg" width="512" height="512" viewBox="0 0 512 512">
  <defs>
    <linearGradient id="bg" x1="0" y1="0" x2="1" y2="1">
      <stop offset="0" stop-color="#16213b"/>
      <stop offset="1" stop-color="#070a12"/>
    </linearGradient>
    <linearGradient id="rim" x1="0" y1="0" x2="1" y2="1">
      <stop offset="0" stop-color="#2fd6c3"/>
      <stop offset="0.55" stop-color="#f6c453"/>
      <stop offset="1" stop-color="#ff6a3d"/>
    </linearGradient>
    <filter id="sh" x="-20%" y="-20%" width="140%" height="140%">
      <feDropShadow dx="0" dy="6" stdDeviation="6" flood-color="#000" flood-opacity="0.55"/>
    </filter>
  </defs>
  <rect x="16" y="16" width="480" height="480" rx="108" fill="url(#bg)"/>
  <rect x="16" y="16" width="480" height="480" rx="108" fill="none" stroke="url(#rim)" stroke-width="10"/>
  <g filter="url(#sh)">
    <rect x="92" y="92" width="96" height="96" rx="12" fill="#f2ede2"/><rect x="100" y="100" width="80" height="80" rx="6" fill="#2fd6c3"/>
    <rect x="208" y="92" width="96" height="96" rx="12" fill="#f2ede2"/><rect x="216" y="100" width="80" height="80" rx="6" fill="#cdbb94"/>
    <rect x="324" y="92" width="96" height="96" rx="12" fill="#f2ede2"/><rect x="332" y="100" width="80" height="80" rx="6" fill="#ff6a3d"/>
    <rect x="92" y="208" width="96" height="96" rx="12" fill="#f2ede2"/><rect x="100" y="216" width="80" height="80" rx="6" fill="#ff6a3d"/>
    <rect x="208" y="208" width="96" height="96" rx="12" fill="#f2ede2"/><rect x="216" y="216" width="80" height="80" rx="6" fill="#0a0a0a"/>
    <circle cx="256" cy="250" r="20" fill="none" stroke="#ff2e4d" stroke-width="7"/><circle cx="249" cy="248" r="3.5" fill="#ff2e4d"/><circle cx="263" cy="248" r="3.5" fill="#ff2e4d"/><rect x="246" y="266" width="20" height="10" rx="3" fill="#ff2e4d"/>
    <rect x="324" y="208" width="96" height="96" rx="12" fill="#f2ede2"/><rect x="332" y="216" width="80" height="80" rx="6" fill="#2fd6c3"/>
    <rect x="92" y="324" width="96" height="96" rx="12" fill="#f2ede2"/><rect x="100" y="332" width="80" height="80" rx="6" fill="#cdbb94"/>
    <rect x="208" y="324" width="96" height="96" rx="12" fill="#f2ede2"/><rect x="216" y="332" width="80" height="80" rx="6" fill="#2fd6c3"/>
    <rect x="324" y="324" width="96" height="96" rx="12" fill="#f2ede2"/><rect x="332" y="332" width="80" height="80" rx="6" fill="#465881"/>
  </g>
  <path d="M410 300 l10 30 30 10 -30 10 -10 30 -10 -30 -30 -10 30 -10z" fill="#f6c453" transform="translate(-12 82)"/>
</svg>
